<svg width="100" height="100" viewBox="0 0 100 100" fill="none" xmlns="http://www.w3.org/2000/svg">
<g clip-path="url(#clip0_1_2)">
<mask id="mask0_1_2" style="mask-type:alpha" maskUnits="userSpaceOnUse" x="0" y="0" width="100" height="100">
<circle cx="50" cy="50" r="50" fill="#FF7319"/>
</mask>
<g mask="url(#mask0_1_2)">
<circle cx="50" cy="50" r="50" fill="#FF7319"/>
<circle cx="50" cy="105" r="50" fill="white"/>
</g>
<path d="M50.8139 33.6364C50.8139 37.2798 50.1055 40.3533 48.6886 42.8569C47.2717 45.3498 45.3594 47.2408 42.9517 48.5298C40.544 49.8082 37.8594 50.4474 34.8977 50.4474C31.9148 50.4474 29.2195 49.8029 26.8118 48.5138C24.4148 47.2141 22.5078 45.3178 21.0909 42.8249C19.6847 40.3214 18.9815 37.2585 18.9815 33.6364C18.9815 29.9929 19.6847 26.9247 21.0909 24.4318C22.5078 21.9283 24.4148 20.0373 26.8118 18.7589C29.2195 17.4698 31.9148 16.8253 34.8977 16.8253C37.8594 16.8253 40.544 17.4698 42.9517 18.7589C45.3594 20.0373 47.2717 21.9283 48.6886 24.4318C50.1055 26.9247 50.8139 29.9929 50.8139 33.6364ZM41.6733 33.6364C41.6733 31.6761 41.4123 30.0249 40.8903 28.6825C40.3789 27.3295 39.6172 26.3068 38.6051 25.6143C37.6037 24.9112 36.3679 24.5597 34.8977 24.5597C33.4276 24.5597 32.1864 24.9112 31.1744 25.6143C30.1729 26.3068 29.4112 27.3295 28.8892 28.6825C28.3778 30.0249 28.1222 31.6761 28.1222 33.6364C28.1222 35.5966 28.3778 37.2532 28.8892 38.6062C29.4112 39.9485 30.1729 40.9712 31.1744 41.6744C32.1864 42.3668 33.4276 42.7131 34.8977 42.7131C36.3679 42.7131 37.6037 42.3668 38.6051 41.6744C39.6172 40.9712 40.3789 39.9485 40.8903 38.6062C41.4123 37.2532 41.6733 35.5966 41.6733 33.6364ZM72.5669 27.5C72.4816 26.4347 72.0821 25.6037 71.3683 25.0071C70.6652 24.4105 69.5945 24.1122 68.1563 24.1122C67.2401 24.1122 66.4891 24.2241 65.9031 24.4478C65.3279 24.6609 64.9017 24.9538 64.6247 25.3267C64.3477 25.6996 64.2039 26.1257 64.1933 26.6051C64.172 26.9993 64.2412 27.3562 64.401 27.6758C64.5715 27.9847 64.8378 28.267 65.2 28.5227C65.5622 28.7678 66.0257 28.9915 66.5903 29.1939C67.1549 29.3963 67.8261 29.5774 68.6038 29.7372L71.2884 30.3125C73.0995 30.696 74.6496 31.2021 75.9387 31.8306C77.2277 32.4592 78.2824 33.1996 79.1027 34.0518C79.923 34.8935 80.5249 35.8416 80.9085 36.8963C81.3026 37.951 81.5051 39.1016 81.5157 40.348C81.5051 42.5 80.9671 44.3217 79.9017 45.8132C78.8364 47.3047 77.3129 48.4393 75.3314 49.217C73.3605 49.9947 70.9901 50.3835 68.2203 50.3835C65.3758 50.3835 62.8936 49.9627 60.7735 49.1211C58.6642 48.2795 57.0235 46.9851 55.8517 45.2379C54.6904 43.4801 54.1045 41.2322 54.0938 38.4943H62.5313C62.5846 39.4957 62.835 40.3374 63.2824 41.0192C63.7298 41.701 64.3584 42.2177 65.1681 42.5692C65.9884 42.9208 66.9632 43.0966 68.0924 43.0966C69.0406 43.0966 69.8343 42.9794 70.4735 42.745C71.1127 42.5107 71.5974 42.1857 71.9276 41.7702C72.2579 41.3548 72.4284 40.8807 72.439 40.348C72.4284 39.8473 72.2632 39.4105 71.9436 39.0376C71.6347 38.6541 71.1233 38.3132 70.4095 38.0149C69.6958 37.706 68.7316 37.4183 67.5171 37.152L64.2572 36.4489C61.3595 35.8203 59.0743 34.771 57.4017 33.3008C55.7398 31.82 54.9142 29.8011 54.9248 27.2443C54.9142 25.1669 55.4681 23.3505 56.5867 21.7951C57.716 20.229 59.2767 19.0092 61.2689 18.1357C63.2718 17.2621 65.5676 16.8253 68.1563 16.8253C70.7984 16.8253 73.0835 17.2674 75.0118 18.1516C76.9401 19.0359 78.4262 20.2823 79.4703 21.891C80.5249 23.489 81.0576 25.3587 81.0683 27.5H72.5669Z" fill="white"/>
</g>
<defs>
<clipPath id="clip0_1_2">
<rect width="100" height="100" fill="white"/>
</clipPath>
</defs>
</svg>
